<mxfile host="app.diagrams.net" modified="2023-09-18T15:50:28.246Z" agent="Mozilla/5.0 (Windows NT 10.0; Win64; x64) AppleWebKit/537.36 (KHTML, like Gecko) Chrome/116.0.0.0 Safari/537.36" etag="pgvTRgMQhz3fr8JIOdEc" version="21.7.5" type="github">
  <diagram name="Page-1" id="58cdce13-f638-feb5-8d6f-7d28b1aa9fa0">
    <mxGraphModel dx="1502" dy="576" grid="1" gridSize="10" guides="1" tooltips="1" connect="1" arrows="1" fold="1" page="1" pageScale="1" pageWidth="1100" pageHeight="850" background="none" math="0" shadow="0">
      <root>
        <mxCell id="0" />
        <mxCell id="1" parent="0" />
        <mxCell id="gHJrOtb0hglAZxBAzxMM-21" value="&lt;div style=&quot;color: rgb(8, 8, 8); font-family: &amp;quot;JetBrains Mono&amp;quot;, monospace; font-size: 9.8pt;&quot;&gt;&lt;pre style=&quot;&quot;&gt;cmp-common-rdv-ingesta-legados-scala.jar&lt;/pre&gt;&lt;/div&gt;" style="html=1;outlineConnect=0;whiteSpace=wrap;fillColor=#99ffff;shape=mxgraph.archimate.application;appType=comp" vertex="1" parent="1">
          <mxGeometry x="701" y="173" width="300" height="85" as="geometry" />
        </mxCell>
        <mxCell id="gHJrOtb0hglAZxBAzxMM-22" value="&lt;div style=&quot;font-family: Consolas, &amp;quot;Courier New&amp;quot;, monospace; font-size: 14px; line-height: 19px;&quot;&gt;M790_M_RDV_ING_DATOS_CVM_PRUEBA&lt;/div&gt;" style="html=1;outlineConnect=0;whiteSpace=wrap;fillColor=#99ffff;shape=mxgraph.archimate.application;appType=comp" vertex="1" parent="1">
          <mxGeometry x="29" y="235.5" width="250" height="90" as="geometry" />
        </mxCell>
        <mxCell id="gHJrOtb0hglAZxBAzxMM-23" value="common-rdv-ingesta-legados-01-GenConfigXMalla-1.0.sh" style="html=1;outlineConnect=0;whiteSpace=wrap;fillColor=#99ffff;shape=mxgraph.archimate.application;appType=comp" vertex="1" parent="1">
          <mxGeometry x="320" y="123" width="340" height="75" as="geometry" />
        </mxCell>
        <mxCell id="gHJrOtb0hglAZxBAzxMM-24" value="common-rdv-ingesta-legados-06-DepTablasTempMalla-1.0.sh" style="html=1;outlineConnect=0;whiteSpace=wrap;fillColor=#99ffff;shape=mxgraph.archimate.application;appType=comp" vertex="1" parent="1">
          <mxGeometry x="320" y="243" width="340" height="75" as="geometry" />
        </mxCell>
        <mxCell id="gHJrOtb0hglAZxBAzxMM-25" value="common-rdv-ingesta-legados-02-EjecutaWF-1.0.sh" style="html=1;outlineConnect=0;whiteSpace=wrap;fillColor=#99ffff;shape=mxgraph.archimate.application;appType=comp" vertex="1" parent="1">
          <mxGeometry x="320" y="360" width="340" height="75" as="geometry" />
        </mxCell>
        <mxCell id="gHJrOtb0hglAZxBAzxMM-26" value="&lt;div style=&quot;&quot;&gt;&lt;pre style=&quot;&quot;&gt;&lt;font color=&quot;#080808&quot;&gt;NIFI&lt;/font&gt;&lt;/pre&gt;&lt;pre style=&quot;&quot;&gt;&lt;font style=&quot;&quot; color=&quot;#080808&quot;&gt;5edd1902-da5d-3ef9-a43e-e015249c9c51&lt;/font&gt;&lt;font style=&quot;background-color: rgb(255, 255, 255);&quot; face=&quot;JetBrains Mono, monospace&quot; color=&quot;#080808&quot;&gt;&lt;span style=&quot;font-size: 9.8pt;&quot;&gt;&lt;br&gt;&lt;/span&gt;&lt;/font&gt;&lt;/pre&gt;&lt;/div&gt;" style="html=1;outlineConnect=0;whiteSpace=wrap;fillColor=#99ffff;shape=mxgraph.archimate.application;appType=comp" vertex="1" parent="1">
          <mxGeometry x="702" y="301" width="300" height="85" as="geometry" />
        </mxCell>
        <mxCell id="gHJrOtb0hglAZxBAzxMM-27" value="&lt;table cellpadding=&quot;0&quot; cellspacing=&quot;0&quot; style=&quot;font-size:1em;width:100%;height:100%;&quot;&gt;&lt;tbody&gt;&lt;tr style=&quot;height:20px;&quot;&gt;&lt;td align=&quot;center&quot;&gt;malla_wf_ingesta&lt;/td&gt;&lt;/tr&gt;&lt;tr&gt;&lt;td align=&quot;left&quot; valign=&quot;top&quot; style=&quot;padding:4px;&quot;&gt;&lt;div style=&quot;color: rgb(204, 204, 204); font-family: Consolas, &amp;quot;Courier New&amp;quot;, monospace; font-size: 14px; line-height: 19px;&quot;&gt;&lt;br&gt;&lt;/div&gt;&lt;/td&gt;&lt;/tr&gt;&lt;/tbody&gt;&lt;/table&gt;" style="html=1;outlineConnect=0;whiteSpace=wrap;fillColor=#99ffff;shape=mxgraph.archimate.businessObject;overflow=fill" vertex="1" parent="1">
          <mxGeometry x="40" y="500" width="160" height="70" as="geometry" />
        </mxCell>
        <mxCell id="gHJrOtb0hglAZxBAzxMM-28" value="&lt;table cellpadding=&quot;0&quot; cellspacing=&quot;0&quot; style=&quot;font-size:1em;width:100%;height:100%;&quot;&gt;&lt;tbody&gt;&lt;tr style=&quot;height:20px;&quot;&gt;&lt;td align=&quot;center&quot;&gt;&lt;div style=&quot;font-family: Consolas, &amp;quot;Courier New&amp;quot;, monospace; font-size: 14px; line-height: 19px;&quot;&gt;estruct_file_origen&lt;/div&gt;&lt;/td&gt;&lt;/tr&gt;&lt;tr&gt;&lt;td align=&quot;left&quot; valign=&quot;top&quot; style=&quot;padding:4px;&quot;&gt;&lt;div style=&quot;color: rgb(204, 204, 204); font-family: Consolas, &amp;quot;Courier New&amp;quot;, monospace; font-size: 14px; line-height: 19px;&quot;&gt;&lt;br&gt;&lt;/div&gt;&lt;/td&gt;&lt;/tr&gt;&lt;/tbody&gt;&lt;/table&gt;" style="html=1;outlineConnect=0;whiteSpace=wrap;fillColor=#99ffff;shape=mxgraph.archimate.businessObject;overflow=fill" vertex="1" parent="1">
          <mxGeometry x="230" y="500" width="160" height="70" as="geometry" />
        </mxCell>
        <mxCell id="gHJrOtb0hglAZxBAzxMM-29" value="&lt;div style=&quot;font-family: Consolas, &amp;quot;Courier New&amp;quot;, monospace; font-size: 14px; line-height: 19px;&quot;&gt;estruct_destino&lt;/div&gt;" style="html=1;outlineConnect=0;whiteSpace=wrap;fillColor=#99ffff;shape=mxgraph.archimate.businessObject;overflow=fill" vertex="1" parent="1">
          <mxGeometry x="420" y="500" width="160" height="70" as="geometry" />
        </mxCell>
        <mxCell id="gHJrOtb0hglAZxBAzxMM-30" value="TABLAS DE CONFIGURACION" style="text;html=1;strokeColor=none;fillColor=none;align=center;verticalAlign=middle;whiteSpace=wrap;rounded=0;" vertex="1" parent="1">
          <mxGeometry x="205" y="460" width="210" height="30" as="geometry" />
        </mxCell>
        <mxCell id="gHJrOtb0hglAZxBAzxMM-31" value="CVM_ACTIVOS_FIJOS_MO_MMYYDD.TXT" style="shape=document;whiteSpace=wrap;html=1;boundedLbl=1;" vertex="1" parent="1">
          <mxGeometry x="650" y="495" width="120" height="80" as="geometry" />
        </mxCell>
        <mxCell id="gHJrOtb0hglAZxBAzxMM-32" value="/SUTENTOFISCAL/REPORTES_SAP/" style="text;html=1;strokeColor=none;fillColor=none;align=center;verticalAlign=middle;whiteSpace=wrap;rounded=0;" vertex="1" parent="1">
          <mxGeometry x="615" y="460" width="210" height="30" as="geometry" />
        </mxCell>
        <mxCell id="gHJrOtb0hglAZxBAzxMM-33" value="&lt;div style=&quot;box-sizing: border-box; width: 100%; background-image: initial; background-position: initial; background-size: initial; background-repeat: initial; background-attachment: initial; background-origin: initial; background-clip: initial; padding: 2px;&quot;&gt;&lt;div style=&quot;line-height: 19px;&quot;&gt;&lt;font face=&quot;Consolas, Courier New, monospace&quot;&gt;cvm_activos_fijos_mo&lt;/font&gt;&lt;br&gt;&lt;/div&gt;&lt;/div&gt;" style="verticalAlign=top;align=left;overflow=fill;html=1;whiteSpace=wrap;" vertex="1" parent="1">
          <mxGeometry x="880" y="495" width="180" height="90" as="geometry" />
        </mxCell>
        <mxCell id="gHJrOtb0hglAZxBAzxMM-34" value="TABLA DESTINO" style="text;html=1;strokeColor=none;fillColor=none;align=center;verticalAlign=middle;whiteSpace=wrap;rounded=0;" vertex="1" parent="1">
          <mxGeometry x="860" y="460" width="210" height="30" as="geometry" />
        </mxCell>
      </root>
    </mxGraphModel>
  </diagram>
</mxfile>
